<mxfile host="app.diagrams.net" modified="2024-07-13T09:55:53.920Z" agent="Mozilla/5.0 (Macintosh; Intel Mac OS X 10_15_7) AppleWebKit/537.36 (KHTML, like Gecko) Chrome/125.0.0.0 Safari/537.36" version="24.6.5" etag="AwRm3X3jc19SZSVjhobc" type="github">
  <diagram name="Page-1" id="fcXfqhsBKUfVQzxGYZ-0">
    <mxGraphModel>
      <root>
        <mxCell id="0" />
        <mxCell id="1" parent="0" />
      </root>
    </mxGraphModel>
  </diagram>
</mxfile>
